<svg width="159" height="44" viewBox="0 0 667 205" fill="none" xmlns="http://www.w3.org/2000/svg">
<path d="M251.467 81.9333C250.267 85.6667 241.2 130.467 240.4 136.467C239.733 141.533 240 142.2 244.267 145.533C249.467 149.4 257.867 150.067 272.667 147.667C281.6 146.2 284.533 143.533 283.333 138.333C281.733 131.8 279.867 131 270.133 133.533C262.533 135.4 254.667 136.333 254.667 135.267C254.667 135.133 257.333 124.467 260.667 111.667C267.067 85.9333 267.067 86.0667 258.4 81.5333C253.733 79.1333 252.4 79.1333 251.467 81.9333Z" fill="#1C1C1C"/>
<path d="M309.867 94.4667C300.667 97.1333 291.067 112.467 289.733 126.467C289.067 133.933 289.067 134.2 294.667 140.067C301.067 147.133 307.333 149.667 315.467 148.467C330.533 146.467 338.133 137 329.867 130.467L326.4 127.8L319.6 131.667C315.733 133.8 310.933 135.667 308.667 135.933C305.067 136.333 304.667 135.933 304.667 132.467C304.667 128.867 305.333 128.333 312 126.333C322 123.267 327.067 120.467 331.2 115.667C335.2 110.867 335.6 107.533 332.533 102.333C328.4 95.5333 318.133 91.9333 309.867 94.4667ZM320.533 108.067C321.6 109.667 321.2 110.867 319.333 113C316.133 116.467 308.133 121.533 307.2 120.6C305.867 119.267 308.133 114.2 312.267 109.533C316.533 104.733 318.267 104.333 320.533 108.067Z" fill="#1C1C1C"/>
<path d="M362 95.5333C348.4 101.667 337.333 126.733 343.2 137.933C346 143.4 352.8 149 356.667 149C360.667 149 366.8 143.8 371.6 136.333C376.8 128.067 381.067 128.067 376.8 136.333C374.533 140.733 375.733 143.533 381.467 146.867C386.4 149.8 390.133 149.533 398.267 145.8C405.6 142.333 407.733 138.867 405.333 134.467C402.667 129.4 399.067 128.6 393.867 131.8C391.333 133.4 388.933 134.333 388.667 134.067C388.267 133.667 390.133 127.267 392.667 119.667C397.867 104.067 397.6 102.067 389.067 97.9333C384.933 95.8 384.533 95.8 382.533 98.2C380.533 100.6 380.4 100.467 376.267 96.8667C371.2 92.3333 369.2 92.2 362 95.5333ZM378.533 106.2C381.6 108.2 374.533 121 365.867 128.867C355.333 138.6 355.2 138.467 358.933 123C362 110.333 371.733 101.933 378.533 106.2Z" fill="#1C1C1C"/>
<path d="M417.867 97.5334C412.533 102.867 412.267 105.267 416.4 108.6C421.467 112.6 421.6 113.933 418 126.467C415.333 135.533 414.667 139.4 415.733 141.533C417.333 145 425.6 149.667 428.4 148.6C430.667 147.8 433.333 137.133 433.333 128.867C433.333 124.333 434 123.267 437.733 121C440 119.533 445.333 117.133 449.333 115.533C457.733 112.333 458.667 111.4 458.667 104.733C458.667 99.1334 455.067 95.6667 449.067 95.6667C446 95.6667 444.8 96.8667 440.533 105C437.867 110.2 435.333 114.067 434.933 113.667C434.4 113.267 434.267 110.6 434.533 107.667C434.933 101.267 433.067 97.6667 428 95C422.933 92.3334 423.067 92.3334 417.867 97.5334Z" fill="#1C1C1C"/>
<path d="M469.867 97.5333C464.267 103.133 464.133 105.4 469.333 109.267C471.6 110.867 473.333 112.867 473.333 113.667C473.333 114.467 471.2 120.333 468.533 126.733C466 133.133 464.133 139.4 464.533 140.733C465.6 143.8 474 149.267 476.933 148.733C478.8 148.467 479.867 145.933 481.333 138.6C483.067 130.2 484.133 128.067 489.6 122.333C495.333 116.2 500 113.8 500 116.867C500 117.667 498.533 123 496.667 128.733C494.8 134.6 493.733 140.333 494.133 141.533C495.2 144.467 502.933 149 506.933 149C511.067 149 523.467 142.867 524.533 140.2C525.6 137.4 523.2 132.067 520 130.333C517.733 129.133 516.4 129.4 512.8 131.533C510.4 133.133 508 134.333 507.6 134.333C507.2 134.333 509.067 128.067 511.733 120.467C517.2 105 516.933 102.333 509.2 97.8C504.133 94.8667 502.133 95.9333 493.333 107C489.333 111.8 486.133 115.667 486.133 115.667C486 115.667 486 111.933 486 107.4C486 99.5333 485.867 99 481.467 96.0667C478.933 94.3333 476.4 93 475.733 93C474.933 93 472.4 95 469.867 97.5333Z" fill="#1C1C1C"/>
<path d="M542.933 73.4C542.133 74.2 541.2 76.6 540.667 78.6C539.867 81.5333 540.533 82.8667 543.333 85.6667C547.867 89.6667 552.4 89.9333 555.867 86.2C560 81.8 560.133 77.2667 556.267 74.3333C552.533 71.4 545.067 70.8667 542.933 73.4Z" fill="#7351F5"/>
<path d="M591.333 73.6667C582.267 76.8667 580.933 79.6667 581.733 93.9334L582.4 106.333H577.467C571.6 106.333 569.333 108.2 569.333 113.133C569.333 117.533 571.333 119 576.533 118.467C579.867 118.2 580.267 118.467 579.333 120.6C578.8 121.933 576.933 126.867 575.333 131.667C571.867 141.4 572.4 143.8 578.667 147C587.067 151.267 588.267 149.667 590.533 130.333C591.467 123.4 592.267 117.533 592.533 117.4C592.667 117.133 596.533 116.6 601.067 116.2C608.533 115.4 609.467 114.867 610.267 111.933C611.733 106.067 609.2 104.333 600.8 104.733C592.267 105.267 592.267 105.267 594.8 92.7334C596.8 83 598.267 82.0667 600.933 88.7334C602.933 93.4 604 94.3334 607.067 94.3334C611.067 94.3334 616 90.2 616 86.8667C616 83.1334 611.6 77.1334 607.333 75.1334C600.667 72.0667 596.933 71.8 591.333 73.6667Z" fill="#7351F5"/>
<path d="M536.667 97.1333C531.2 101.933 530.8 105.133 535.067 108.6C540.267 112.733 540.267 113.933 535.333 125.667C532.8 131.933 530.667 138.2 530.667 139.667C530.667 143.133 539.467 149 544.667 149C549.733 149 562 143.267 563.067 140.467C564.267 137.4 562 132.067 558.667 130.333C556.4 129.133 555.067 129.4 551.467 131.533C549.067 133.133 546.667 134.333 546.267 134.333C545.867 134.333 547.067 129.933 548.933 124.6C550.667 119.4 552.533 111.933 552.933 108.333C553.6 101.8 553.467 101.4 548.8 97.2667C546.133 94.8667 543.333 93 542.667 93C542 93 539.333 94.8667 536.667 97.1333Z" fill="#7351F5"/>
<path d="M623.333 94.6C619.867 96.4667 616.133 101.133 616 103.667C616 104.733 617.867 107.4 620 109.667L624 113.8L620.667 123.667C616.4 136.333 616.4 138.733 621.467 142.867C626.667 147.267 631.333 146.067 644.8 136.867C649.733 133.533 652 133.133 652 135.667C652 136.2 645.6 141.267 637.867 147C622.267 158.733 616 165 616 169.267C616 173.4 626.933 183.4 632.533 184.333C638.133 185.4 648.267 181.4 651.067 176.733C653.333 173.4 658 153.133 663.2 124.467L666.667 105.8L663.733 102.6C662 100.867 659.067 98.6 656.933 97.5333C653.467 95.6667 653.2 95.8 652 99C651.333 100.733 650.4 106.333 649.867 111.267C649.333 116.6 648.133 121.4 646.8 122.867C644.4 125.533 633.467 132.333 632.667 131.533C632.4 131.267 633.333 126.2 634.8 120.333C638.533 104.733 638.267 102.067 632.667 97.1333C627.333 92.6 627.067 92.4667 623.333 94.6ZM645.867 159.267C644 164.333 641.6 169.667 640.533 171.267C636.933 177 629.6 173.667 631.2 167.133C632 164.067 645.733 150.333 648.133 150.333C648.8 150.333 647.733 154.333 645.867 159.267Z" fill="#7351F5"/>
<path d="M52.8 17.5333C25.3333 27.1333 2.13331 35.6667 1.46664 36.3333C0.666643 37.1333 0.53331 38.4667 1.06664 39.2667C1.59998 40.2 24.8 48.7333 52.6666 58.3333L103.2 75.9333L142.133 62.4667C163.6 55 182 48.6 183.2 48.2C185.067 47.5333 185.333 50.3333 185.333 75.4V103.4L182.133 104.2C178.267 105.133 174 110.733 172.8 116.467C170.8 125.667 179.333 135.667 189.067 135.667C198.8 135.667 205.333 129 205.333 119.133C205.333 114.333 204.533 112.2 201.2 108.333C198.933 105.8 196.267 103.667 195.2 103.667C193.6 103.667 193.333 98.6 193.333 74.4667V45.2667L199.067 43.2667C203.467 41.8 204.667 40.8667 204.667 38.3333C204.667 35.5333 203.067 34.7333 190 30.2C182 27.5333 159.067 19.6667 139.067 12.7333L102.933 0.199998L52.8 17.5333Z" fill="#7351F5"/>
<path d="M44.2666 96.4667L44.6666 126.6L52.6666 129.8C68.9333 136.467 81.8666 138.867 102.667 139C124.4 139 136.533 136.867 153.067 130.067L162.667 126.067V96.2C162.667 79.8 162.133 66.3333 161.467 66.3333C160.933 66.3333 148.267 70.4667 133.467 75.6667C118.667 80.7333 105.067 85 103.333 85C101.6 85 88 80.7333 73.2 75.6667C58.2666 70.4667 45.6 66.3333 45.0666 66.3333C44.4 66.3333 44.1333 79.9333 44.2666 96.4667Z" fill="#7351F5"/>
<path d="M177.333 172.2C177.333 206.467 176.8 205 189.333 205C201.867 205 201.333 206.467 201.333 172.333V142.333L197.867 143.667C193.467 145.4 183.2 145.4 179.867 143.667C177.333 142.333 177.333 143 177.333 172.2Z" fill="#7351F5"/>
7653FC"/>
7653FC"/>
</svg>
